<mxfile host="65bd71144e" scale="10" border="10">
    <diagram id="Q47MCojktOIWhmkkRNmA" name="PC">
        <mxGraphModel dx="1235" dy="761" grid="1" gridSize="10" guides="1" tooltips="1" connect="1" arrows="1" fold="1" page="1" pageScale="1" pageWidth="850" pageHeight="1100" background="#ffffff" math="0" shadow="0">
            <root>
                <mxCell id="0"/>
                <mxCell id="1" parent="0"/>
                <mxCell id="4MZN0flkRjgmHkO3IPmf-3" value="" style="group" vertex="1" connectable="0" parent="1">
                    <mxGeometry x="320" y="300" width="280" height="220" as="geometry"/>
                </mxCell>
                <mxCell id="3HsnKz3F512zoB5Vfatj-2" value="" style="rounded=0;whiteSpace=wrap;html=1;labelBackgroundColor=none;strokeColor=#b85450;strokeWidth=3;fontSize=12;fillColor=#f8cecc;" vertex="1" parent="4MZN0flkRjgmHkO3IPmf-3">
                    <mxGeometry x="80" y="20" width="120" height="200" as="geometry"/>
                </mxCell>
                <mxCell id="UK1QFQPOsykGdMBzXxtG-1" value="" style="triangle;whiteSpace=wrap;html=1;labelBackgroundColor=none;strokeColor=#b85450;strokeWidth=3;fontSize=12;fillColor=#f8cecc;rotation=0;" vertex="1" parent="4MZN0flkRjgmHkO3IPmf-3">
                    <mxGeometry x="80" y="170" width="20" height="40" as="geometry"/>
                </mxCell>
                <mxCell id="UK1QFQPOsykGdMBzXxtG-3" value="" style="endArrow=classic;html=1;fontSize=12;entryX=0;entryY=0.5;entryDx=0;entryDy=0;strokeWidth=2;" edge="1" parent="4MZN0flkRjgmHkO3IPmf-3" target="UK1QFQPOsykGdMBzXxtG-1">
                    <mxGeometry width="50" height="50" relative="1" as="geometry">
                        <mxPoint y="190" as="sourcePoint"/>
                        <mxPoint x="70" y="190" as="targetPoint"/>
                    </mxGeometry>
                </mxCell>
                <mxCell id="0EzFavtzSuFfpyex9haN-1" value="PC" style="text;html=1;strokeColor=none;fillColor=none;align=center;verticalAlign=middle;whiteSpace=wrap;rounded=0;fontStyle=1;fontSize=16;fontColor=#000006;" vertex="1" parent="4MZN0flkRjgmHkO3IPmf-3">
                    <mxGeometry x="110" width="60" height="10" as="geometry"/>
                </mxCell>
                <mxCell id="C3Dm4STE0HxqpAibocPW-1" value="clk_i" style="text;html=1;strokeColor=none;fillColor=none;align=left;verticalAlign=middle;whiteSpace=wrap;rounded=0;fontSize=14;" vertex="1" parent="4MZN0flkRjgmHkO3IPmf-3">
                    <mxGeometry x="105" y="175" width="60" height="30" as="geometry"/>
                </mxCell>
                <mxCell id="C3Dm4STE0HxqpAibocPW-2" value="" style="endArrow=classic;html=1;entryX=0;entryY=0;entryDx=0;entryDy=140;entryPerimeter=0;strokeWidth=2;" edge="1" parent="4MZN0flkRjgmHkO3IPmf-3">
                    <mxGeometry width="50" height="50" relative="1" as="geometry">
                        <mxPoint y="60" as="sourcePoint"/>
                        <mxPoint x="80" y="60" as="targetPoint"/>
                    </mxGeometry>
                </mxCell>
                <mxCell id="C3Dm4STE0HxqpAibocPW-3" value="Width" style="edgeLabel;html=1;align=center;verticalAlign=middle;resizable=0;points=[];fontSize=12;" vertex="1" connectable="0" parent="C3Dm4STE0HxqpAibocPW-2">
                    <mxGeometry x="0.2071" y="1" relative="1" as="geometry">
                        <mxPoint x="-13" y="1" as="offset"/>
                    </mxGeometry>
                </mxCell>
                <mxCell id="C3Dm4STE0HxqpAibocPW-4" value="" style="endArrow=classic;html=1;entryX=0;entryY=0;entryDx=0;entryDy=140;entryPerimeter=0;strokeWidth=2;" edge="1" parent="4MZN0flkRjgmHkO3IPmf-3">
                    <mxGeometry width="50" height="50" relative="1" as="geometry">
                        <mxPoint x="200" y="60" as="sourcePoint"/>
                        <mxPoint x="280" y="60" as="targetPoint"/>
                    </mxGeometry>
                </mxCell>
                <mxCell id="C3Dm4STE0HxqpAibocPW-5" value="Width" style="edgeLabel;html=1;align=center;verticalAlign=middle;resizable=0;points=[];fontSize=12;" vertex="1" connectable="0" parent="C3Dm4STE0HxqpAibocPW-4">
                    <mxGeometry x="0.2071" y="1" relative="1" as="geometry">
                        <mxPoint x="-13" y="1" as="offset"/>
                    </mxGeometry>
                </mxCell>
                <mxCell id="C3Dm4STE0HxqpAibocPW-6" value="pc_o" style="text;html=1;strokeColor=none;fillColor=none;align=right;verticalAlign=middle;whiteSpace=wrap;rounded=0;fontSize=14;" vertex="1" parent="4MZN0flkRjgmHkO3IPmf-3">
                    <mxGeometry x="137" y="44" width="60" height="30" as="geometry"/>
                </mxCell>
                <mxCell id="4MZN0flkRjgmHkO3IPmf-1" value="pc_i" style="text;html=1;strokeColor=none;fillColor=none;align=left;verticalAlign=middle;whiteSpace=wrap;rounded=0;fontSize=14;" vertex="1" parent="4MZN0flkRjgmHkO3IPmf-3">
                    <mxGeometry x="84" y="44" width="60" height="30" as="geometry"/>
                </mxCell>
            </root>
        </mxGraphModel>
    </diagram>
    <diagram id="9tquQ8Xzljn0uW0vOs-n" name="InstructionMemory">
        <mxGraphModel dx="357" dy="220" grid="1" gridSize="10" guides="1" tooltips="1" connect="1" arrows="1" fold="1" page="1" pageScale="1" pageWidth="850" pageHeight="1100" background="#ffffff" math="0" shadow="0">
            <root>
                <mxCell id="0"/>
                <mxCell id="1" parent="0"/>
                <mxCell id="14" value="" style="group" vertex="1" connectable="0" parent="1">
                    <mxGeometry x="40" y="50" width="360" height="300" as="geometry"/>
                </mxCell>
                <mxCell id="3" value="" style="externalPins=0;recursiveResize=0;shadow=0;dashed=0;align=center;html=1;strokeWidth=3;shape=mxgraph.rtl.abstract.entity;container=1;collapsible=0;kind=sequential;drawPins=0;left=3;right=2;bottom=0;top=0;labelBackgroundColor=none;fillColor=#dae8fc;strokeColor=#6c8ebf;gradientColor=none;" parent="14" vertex="1">
                    <mxGeometry x="80" y="20" width="200" height="280" as="geometry"/>
                </mxCell>
                <mxCell id="9" value="instr_addr_i" style="text;html=1;strokeColor=none;fillColor=none;align=left;verticalAlign=middle;whiteSpace=wrap;rounded=0;fontSize=14;" parent="3" vertex="1">
                    <mxGeometry x="3" y="125" width="60" height="30" as="geometry"/>
                </mxCell>
                <mxCell id="10" value="instr_rdata_o" style="text;html=1;strokeColor=none;fillColor=none;align=right;verticalAlign=middle;whiteSpace=wrap;rounded=0;fontSize=14;" parent="3" vertex="1">
                    <mxGeometry x="137" y="125" width="60" height="30" as="geometry"/>
                </mxCell>
                <mxCell id="7" value="" style="endArrow=classic;html=1;entryX=0;entryY=0;entryDx=0;entryDy=140;entryPerimeter=0;strokeWidth=2;" parent="14" target="3" edge="1">
                    <mxGeometry width="50" height="50" relative="1" as="geometry">
                        <mxPoint y="160" as="sourcePoint"/>
                        <mxPoint x="60" y="130" as="targetPoint"/>
                    </mxGeometry>
                </mxCell>
                <mxCell id="15" value="Width" style="edgeLabel;html=1;align=center;verticalAlign=middle;resizable=0;points=[];fontSize=12;" vertex="1" connectable="0" parent="7">
                    <mxGeometry x="-0.0155" y="-1" relative="1" as="geometry">
                        <mxPoint x="-5" y="-1" as="offset"/>
                    </mxGeometry>
                </mxCell>
                <mxCell id="8" value="" style="endArrow=classic;html=1;entryX=0;entryY=0;entryDx=0;entryDy=140;entryPerimeter=0;strokeWidth=2;" parent="14" edge="1">
                    <mxGeometry width="50" height="50" relative="1" as="geometry">
                        <mxPoint x="280" y="159.66" as="sourcePoint"/>
                        <mxPoint x="360" y="159.66" as="targetPoint"/>
                    </mxGeometry>
                </mxCell>
                <mxCell id="16" value="Width" style="edgeLabel;html=1;align=center;verticalAlign=middle;resizable=0;points=[];fontSize=12;" vertex="1" connectable="0" parent="8">
                    <mxGeometry x="0.2071" y="1" relative="1" as="geometry">
                        <mxPoint x="-13" y="1" as="offset"/>
                    </mxGeometry>
                </mxCell>
                <mxCell id="6" value="InstructionMemory" style="text;html=1;strokeColor=none;fillColor=none;align=center;verticalAlign=middle;whiteSpace=wrap;rounded=0;fontStyle=1;fontSize=16;fontColor=#000006;" parent="14" vertex="1">
                    <mxGeometry x="150" width="60" height="10" as="geometry"/>
                </mxCell>
            </root>
        </mxGraphModel>
    </diagram>
</mxfile>